<svg width="9" height="7" viewBox="0 0 9 7" fill="none" xmlns="http://www.w3.org/2000/svg">
<g id="Group">
<path id="Vector" d="M0 6.69324V0.108771C0 0.0640113 0.0187166 0.0383963 0.062391 0.0383963C0.707121 0.0383963 1.35157 0 1.99644 0C3.04293 0 4.17599 0.357812 4.57316 1.45253C4.66674 1.7213 4.71664 1.99644 4.71664 2.28441C4.71664 2.83474 4.59188 3.28902 4.3423 3.64737C3.64518 4.64835 2.43693 4.63279 1.35387 4.63279V6.68687C1.36232 6.74768 1.3105 6.77645 1.26028 6.77645H0.0748674C0.0249577 6.77645 0 6.75083 0 6.69324ZM1.36007 1.27338V3.42341C1.78954 3.45486 2.2389 3.45828 2.65153 3.32106C3.1071 3.18961 3.35657 2.79533 3.35657 2.32281C3.36919 1.92018 3.14983 1.53387 2.77634 1.38857C2.36869 1.21905 1.80013 1.20889 1.36007 1.27338Z" fill="#31A8FF"/>
<path id="Vector_2" d="M8.60795 2.99865C8.41918 2.89913 8.2181 2.82635 8.01024 2.78229C7.74318 2.71945 6.6898 2.49934 6.68937 3.05015C6.69873 3.35764 7.18686 3.50828 7.40253 3.59615C8.15971 3.8561 9.01651 4.32075 8.99966 5.25483C9.02282 6.41763 7.89617 6.8825 6.93044 6.8826C6.42771 6.88779 5.90396 6.80993 5.44384 6.5941C5.39989 6.57084 5.37165 6.52116 5.37352 6.47046V5.35783C5.36855 5.31323 5.41646 5.27424 5.4539 5.30633C5.90471 5.57895 6.43904 5.71136 6.9606 5.71842C7.19082 5.71842 7.64708 5.69612 7.64366 5.35783C7.64366 5.03322 7.09782 4.88397 6.88023 4.80151C6.56482 4.68894 6.26578 4.53295 5.99128 4.33792C5.60764 4.06428 5.367 3.62556 5.37352 3.14288C5.37128 2.048 6.40835 1.55655 7.34232 1.55633C7.7789 1.5527 8.24778 1.58505 8.65421 1.76238C8.71266 1.77955 8.72474 1.84115 8.72453 1.89629V2.93683C8.72822 3.00143 8.6565 3.02341 8.60795 2.99865Z" fill="#31A8FF"/>
</g>
</svg>
