<svg width="15" height="15" viewBox="0 0 15 15" fill="none" xmlns="http://www.w3.org/2000/svg">
<path id="Vector" d="M0 5.42855C0 3.52839 0 2.5783 0.369798 1.85253C0.695084 1.21413 1.21413 0.695084 1.85253 0.369798C2.5783 0 3.52839 0 5.42855 0H9.57144C11.4716 0 12.4217 0 13.1474 0.369798C13.7858 0.695084 14.3049 1.21413 14.6302 1.85253C15 2.5783 15 3.52839 15 5.42855V9.57144C15 11.4716 15 12.4217 14.6302 13.1474C14.3049 13.7858 13.7858 14.3049 13.1474 14.6302C12.4217 15 11.4716 15 9.57144 15H5.42855C3.52839 15 2.5783 15 1.85253 14.6302C1.21413 14.3049 0.695084 13.7858 0.369798 13.1474C0 12.4217 0 11.4716 0 9.57144V5.42855Z" fill="#00005B"/>
</svg>
