<svg width="9" height="7" viewBox="0 0 9 7" fill="none" xmlns="http://www.w3.org/2000/svg">
<g id="Group">
<path id="Vector" d="M0 6.89V0.111979C0 0.0658702 0.0189001 0.0395229 0.0630056 0.0395229C0.714131 0.0395229 1.36495 0 2.01627 0C3.07306 0 4.2174 0.368325 4.6185 1.49526C4.713 1.77192 4.7634 2.05515 4.7634 2.35157C4.7634 2.91804 4.6374 3.38569 4.38535 3.75459C3.68136 4.78499 2.4611 4.769 1.36726 4.769V6.88338C1.37583 6.946 1.32349 6.97562 1.27276 6.97562H0.0756109C0.0252054 6.97562 0 6.94929 0 6.89ZM1.37356 1.31083V3.52402C1.8073 3.55644 2.26111 3.55994 2.67783 3.41864C3.13789 3.28338 3.38984 2.87749 3.38984 2.3911C3.40265 1.97664 3.18108 1.57893 2.80388 1.4294C2.39217 1.25489 1.81801 1.24444 1.37356 1.31083Z" fill="#9999FF"/>
<path id="Vector_2" d="M5.6175 1.72948H6.72329C6.78424 1.73007 6.839 1.77406 6.8551 1.83556C6.93614 2.02364 6.94616 2.2505 6.94643 2.45355C7.13607 2.22271 7.36471 2.03043 7.62101 1.88617C7.8959 1.72361 8.20751 1.64117 8.52326 1.64758C8.57571 1.63972 8.62207 1.68823 8.61459 1.743V3.02621C8.61459 3.0758 8.58066 3.10046 8.51314 3.10046C8.04511 3.0667 7.31646 3.18231 6.97637 3.56709V6.90362C6.97637 6.96727 6.94934 6.99909 6.89522 6.99909H5.70883C5.65056 7.00781 5.59914 6.953 5.60738 6.89301V3.27013C5.60738 2.7847 5.61745 2.28463 5.54653 1.80373C5.5356 1.75947 5.5761 1.71833 5.6175 1.72948Z" fill="#9999FF"/>
</g>
</svg>
