<svg width="20" height="16" viewBox="0 0 20 16" fill="none" xmlns="http://www.w3.org/2000/svg">
<g id="logoMeet">
<path id="Vector" d="M0 14.7198C0 15.427 0.57775 15.9998 1.28959 15.9998H1.30812C0.585386 15.9998 0 15.427 0 14.7198Z" fill="#FBBC05"/>
<path id="Vector_2" d="M11.0819 4.7999V8.1417L15.5873 4.50764V1.27997C15.5873 0.572788 15.0095 0 14.2977 0L4.53688 0L4.52815 4.7999L11.0819 4.7999Z" fill="#FBBC05"/>
<path id="Vector_3" d="M11.0821 11.4849H4.51755L4.50991 16H14.298C15.0109 16 15.5875 15.4272 15.5875 14.72L15.5875 11.8059L11.0821 8.14309V11.4849Z" fill="#34A853"/>
<path id="Vector_4" d="M4.53701 0L0 4.7999L4.52938 4.7999L4.53701 0Z" fill="#EA4335"/>
<path id="Vector_5" d="M0 11.4846L0 14.7197C0 15.4269 0.585386 15.9997 1.30812 15.9997H4.50976L4.51739 11.4846H0Z" fill="#1967D2"/>
<path id="Vector_6" d="M4.52938 4.79989L0 4.79989L0 11.4846L4.51739 11.4846L4.52938 4.79989Z" fill="#4285F4"/>
<path id="Vector_7" d="M19.5486 13.5819L19.5486 2.59545C19.2946 1.13735 17.6955 2.80878 17.6955 2.80878L15.5883 4.50794L15.5883 11.8049L18.6046 14.2571C19.6936 14.4 19.5486 13.5819 19.5486 13.5819Z" fill="#34A853"/>
<path id="Vector_8" d="M11.0819 8.14171L15.5884 11.8056V4.50872L11.0819 8.14171Z" fill="#188038"/>
</g>
</svg>
