<svg width="9" height="8" viewBox="0 0 9 8" fill="none" xmlns="http://www.w3.org/2000/svg">
<g id="Group">
<path id="Vector" d="M4.51985 6.14864H2.00214L1.48988 7.78075C1.47567 7.84139 1.41985 7.88433 1.35909 7.88131H0.0838714C0.0111469 7.88131 -0.0142804 7.84034 0.00757817 7.75835L2.18742 1.3194C2.20924 1.25232 2.23106 1.17596 2.25282 1.09025C2.28136 0.941066 2.29593 0.789501 2.29645 0.63753C2.29018 0.592618 2.32964 0.552952 2.3727 0.559242H4.10571C4.15649 0.559242 4.1855 0.577879 4.19287 0.615132L6.66706 7.76955C6.68881 7.84412 6.66706 7.88137 6.60166 7.88131H5.18471C5.13504 7.887 5.08758 7.85294 5.07574 7.80309L4.51985 6.14864ZM2.39452 4.74011H4.11662C3.83369 3.77328 3.51437 2.81915 3.25557 1.84483C2.97635 2.82083 2.67171 3.79289 2.39452 4.74011Z" fill="#FF9A00"/>
<path id="Vector_2" d="M8.13831 1.74416C8.02713 1.74874 7.9163 1.72919 7.81295 1.68683C7.70967 1.64447 7.61625 1.58017 7.53884 1.49824C7.46166 1.41271 7.40166 1.31244 7.36238 1.20306C7.3231 1.09374 7.30528 0.977513 7.30992 0.861054C7.30598 0.745756 7.32577 0.630922 7.36801 0.524009C7.41031 0.417101 7.47408 0.320539 7.5552 0.240625C7.63551 0.161541 7.73033 0.0995803 7.83419 0.0583294C7.938 0.0170726 8.04877 -0.00265048 8.16007 0.00028565C8.42171 0.00028565 8.62695 0.0804023 8.7759 0.240625C8.8511 0.323892 8.90954 0.421551 8.94789 0.528012C8.98619 0.634462 9.00371 0.747671 8.9993 0.861054C9.00389 0.97792 8.98549 1.09461 8.94522 1.20405C8.90501 1.31349 8.84368 1.41352 8.76499 1.49824C8.68277 1.58139 8.58459 1.64615 8.47678 1.68851C8.36891 1.73081 8.25367 1.74979 8.13831 1.74416ZM7.38623 7.7695V2.42608C7.38623 2.359 7.41519 2.32547 7.47344 2.32547H8.81408C8.87211 2.32547 8.90118 2.359 8.90124 2.42608V7.7695C8.90124 7.84412 8.87217 7.88137 8.81408 7.88132H7.48435C7.41896 7.88132 7.38623 7.84406 7.38623 7.7695Z" fill="#FF9A00"/>
</g>
</svg>
